HIERARCHY
ROOT Hips
{
	OFFSET 0.000000 71.427986 0.000000
	CHANNELS 6 Xposition Yposition Zposition Xrotation Yrotation Zrotation
	JOINT Pelvis
	{
		OFFSET 0.000000 0.000000 0.000000
		CHANNELS 3 Xrotation Yrotation Zrotation
		JOINT LeftUpLeg
		{
			OFFSET 6.797100 -2.508499 -1.318700
			CHANNELS 3 Xrotation Yrotation Zrotation
			JOINT LeftLeg
			{
				OFFSET 0.069008 -29.241863 0.690200
				CHANNELS 3 Xrotation Yrotation Zrotation
				JOINT LeftFoot
				{
					OFFSET -0.069008 -29.568123 -0.266800
					CHANNELS 3 Xrotation Yrotation Zrotation
					JOINT LeftToeBase
					{
						OFFSET 3.145500 -8.631000 16.059900
						CHANNELS 3 Xrotation Yrotation Zrotation
						End Site
						{
							OFFSET 0.000000 18.501587 0.000000
						}
					}
				}
			}
			JOINT Left_ShortSleeve
			{
				OFFSET 0.265923 -10.480953 1.153800
				CHANNELS 3 Xrotation Yrotation Zrotation
				End Site
				{
					OFFSET 1.725763 19.823879 0.000000
				}
			}
		}
		JOINT RightUpLeg
		{
			OFFSET -6.797100 -2.508499 -1.318700
			CHANNELS 3 Xrotation Yrotation Zrotation
			JOINT RightLeg
			{
				OFFSET -0.082453 -29.241932 0.688000
				CHANNELS 3 Xrotation Yrotation Zrotation
				JOINT RightFoot
				{
					OFFSET 0.082453 -29.568058 -0.264600
					CHANNELS 3 Xrotation Yrotation Zrotation
					JOINT RightToeBase
					{
						OFFSET -3.115300 -8.682800 16.113400
						CHANNELS 3 Xrotation Yrotation Zrotation
						End Site
						{
							OFFSET 0.000000 18.567114 0.000000
						}
					}
				}
			}
			JOINT Right_ShortSleeve
			{
				OFFSET -0.265923 -10.480953 1.153800
				CHANNELS 3 Xrotation Yrotation Zrotation
				End Site
				{
					OFFSET -1.725766 19.823910 0.000000
				}
			}
		}
	}
	JOINT Spine
	{
		OFFSET 0.000000 13.368103 0.470500
		CHANNELS 3 Xrotation Yrotation Zrotation
		JOINT Spine1
		{
			OFFSET 0.147000 13.837402 0.538800
			CHANNELS 3 Xrotation Yrotation Zrotation
			JOINT Spine2
			{
				OFFSET 0.168000 16.242897 -1.435500
				CHANNELS 3 Xrotation Yrotation Zrotation
				JOINT Neck
				{
					OFFSET 0.217200 18.631500 -1.679100
					CHANNELS 3 Xrotation Yrotation Zrotation
					JOINT Head
					{
						OFFSET 0.000000 6.599396 1.385900
						CHANNELS 3 Xrotation Yrotation Zrotation
						JOINT Hat
						{
							OFFSET -0.532200 27.220596 -10.096100
							CHANNELS 3 Xrotation Yrotation Zrotation
							End Site
							{
								OFFSET 0.000000 22.029861 0.000000
							}
						}
						JOINT HairD
						{
							OFFSET -10.777400 17.437393 -1.325900
							CHANNELS 3 Xrotation Yrotation Zrotation
							JOINT HairD1
							{
								OFFSET -3.290299 -11.051193 1.062200
								CHANNELS 3 Xrotation Yrotation Zrotation
								End Site
								{
									OFFSET 0.000000 11.579437 0.000000
								}
							}
						}
						JOINT HairB
						{
							OFFSET -10.777400 17.437393 1.467900
							CHANNELS 3 Xrotation Yrotation Zrotation
							JOINT HairB1
							{
								OFFSET -1.561200 -12.956299 3.590200
								CHANNELS 3 Xrotation Yrotation Zrotation
								End Site
								{
									OFFSET 0.000000 13.534866 0.000000
								}
							}
						}
						JOINT HairA
						{
							OFFSET 9.713100 17.437393 1.467900
							CHANNELS 3 Xrotation Yrotation Zrotation
							JOINT HairA1
							{
								OFFSET 1.561200 -12.956299 3.590200
								CHANNELS 3 Xrotation Yrotation Zrotation
								End Site
								{
									OFFSET 0.000000 13.534866 0.000000
								}
							}
						}
						JOINT HairC
						{
							OFFSET 9.713100 17.437393 -1.325900
							CHANNELS 3 Xrotation Yrotation Zrotation
							JOINT HairC1
							{
								OFFSET 3.290300 -11.051193 1.062200
								CHANNELS 3 Xrotation Yrotation Zrotation
								End Site
								{
									OFFSET 0.000000 11.579437 0.000000
								}
							}
						}
					}
				}
				JOINT LeftShoulder
				{
					OFFSET 5.101800 15.108002 -2.763700
					CHANNELS 3 Xrotation Yrotation Zrotation
					JOINT LeftArm
					{
						OFFSET 9.825497 2.506317 -1.597400
						CHANNELS 3 Xrotation Yrotation Zrotation
						JOINT LeftForeArm
						{
							OFFSET 21.966244 0.000000 0.000000
							CHANNELS 3 Xrotation Yrotation Zrotation
							JOINT LeftHand
							{
								OFFSET 33.879036 0.000000 0.000000
								CHANNELS 3 Xrotation Yrotation Zrotation
								JOINT LeftHandThumb1
								{
									OFFSET 6.715286 -2.359680 3.363841
									CHANNELS 3 Xrotation Yrotation Zrotation
									JOINT LeftHandThumb2
									{
										OFFSET 2.507072 -1.447464 1.447461
										CHANNELS 3 Xrotation Yrotation Zrotation
										JOINT LeftHandThumb3
										{
											OFFSET 2.898338 -1.673355 1.673357
											CHANNELS 3 Xrotation Yrotation Zrotation
											End Site
											{
												OFFSET -0.295959 3.727692 -0.131651
											}
										}
									}
								}
								JOINT LeftHandIndex1
								{
									OFFSET 14.190811 -0.254547 3.840278
									CHANNELS 3 Xrotation Yrotation Zrotation
									JOINT LeftHandIndex2
									{
										OFFSET 3.551727 0.000000 -0.000000
										CHANNELS 3 Xrotation Yrotation Zrotation
										JOINT LeftHandIndex3
										{
											OFFSET 2.894196 0.000000 0.000000
											CHANNELS 3 Xrotation Yrotation Zrotation
											End Site
											{
												OFFSET -1.000603 2.690872 0.366626
											}
										}
									}
								}
								JOINT LeftHandMiddle1
								{
									OFFSET 13.776489 0.000000 0.000000
									CHANNELS 3 Xrotation Yrotation Zrotation
									JOINT LeftHandMiddle2
									{
										OFFSET 3.438232 0.000000 0.000000
										CHANNELS 3 Xrotation Yrotation Zrotation
										JOINT LeftHandMiddle3
										{
											OFFSET 3.691551 0.000000 0.000000
											CHANNELS 3 Xrotation Yrotation Zrotation
											End Site
											{
												OFFSET -1.082298 3.499527 0.457670
											}
										}
									}
								}
								JOINT LeftHandRing1
								{
									OFFSET 13.966164 -0.268127 -3.067488
									CHANNELS 3 Xrotation Yrotation Zrotation
									JOINT LeftHandRing2
									{
										OFFSET 3.162567 0.000000 0.000000
										CHANNELS 3 Xrotation Yrotation Zrotation
										JOINT LeftHandRing3
										{
											OFFSET 3.324348 0.000000 0.000000
											CHANNELS 3 Xrotation Yrotation Zrotation
											End Site
											{
												OFFSET -0.861900 3.184998 0.405154
											}
										}
									}
								}
								JOINT LeftHandPinky1
								{
									OFFSET 13.131393 -0.168503 -5.746925
									CHANNELS 3 Xrotation Yrotation Zrotation
									JOINT LeftHandPinky2
									{
										OFFSET 2.849182 0.000000 0.000000
										CHANNELS 3 Xrotation Yrotation Zrotation
										JOINT LeftHandPinky3
										{
											OFFSET 2.805038 0.000000 0.000000
											CHANNELS 3 Xrotation Yrotation Zrotation
											End Site
											{
												OFFSET -0.882500 2.642609 0.325652
											}
										}
									}
								}
							}
							JOINT Left_Sleeve
							{
								OFFSET 6.592125 -0.646545 0.805568
								CHANNELS 3 Xrotation Yrotation Zrotation
								End Site
								{
									OFFSET -0.000179 20.275787 -0.000000
								}
							}
						}
					}
				}
				JOINT RightShoulder
				{
					OFFSET -5.731700 15.108002 -2.763700
					CHANNELS 3 Xrotation Yrotation Zrotation
					JOINT RightArm
					{
						OFFSET -9.825497 2.506317 -1.597400
						CHANNELS 3 Xrotation Yrotation Zrotation
						JOINT RightForeArm
						{
							OFFSET -21.966242 0.000000 0.000000
							CHANNELS 3 Xrotation Yrotation Zrotation
							JOINT RightHand
							{
								OFFSET -33.879032 0.000000 0.000000
								CHANNELS 3 Xrotation Yrotation Zrotation
								JOINT RightHandThumb1
								{
									OFFSET -6.715286 -2.359680 3.363841
									CHANNELS 3 Xrotation Yrotation Zrotation
									JOINT RightHandThumb2
									{
										OFFSET -2.507072 -1.447464 1.447461
										CHANNELS 3 Xrotation Yrotation Zrotation
										JOINT RightHandThumb3
										{
											OFFSET -2.898338 -1.673355 1.673357
											CHANNELS 3 Xrotation Yrotation Zrotation
											End Site
											{
												OFFSET 0.295959 3.727692 -0.131651
											}
										}
									}
								}
								JOINT RightHandIndex1
								{
									OFFSET -14.190811 -0.254547 3.840278
									CHANNELS 3 Xrotation Yrotation Zrotation
									JOINT RightHandIndex2
									{
										OFFSET -3.551727 0.000000 -0.000000
										CHANNELS 3 Xrotation Yrotation Zrotation
										JOINT RightHandIndex3
										{
											OFFSET -2.894196 0.000000 0.000000
											CHANNELS 3 Xrotation Yrotation Zrotation
											End Site
											{
												OFFSET 1.000603 2.690872 0.366626
											}
										}
									}
								}
								JOINT RightHandMiddle1
								{
									OFFSET -13.776489 0.000000 0.000000
									CHANNELS 3 Xrotation Yrotation Zrotation
									JOINT RightHandMiddle2
									{
										OFFSET -3.438232 0.000000 0.000000
										CHANNELS 3 Xrotation Yrotation Zrotation
										JOINT RightHandMiddle3
										{
											OFFSET -3.691551 0.000000 0.000000
											CHANNELS 3 Xrotation Yrotation Zrotation
											End Site
											{
												OFFSET 1.082298 3.499527 0.457670
											}
										}
									}
								}
								JOINT RightHandRing1
								{
									OFFSET -13.966164 -0.268127 -3.067488
									CHANNELS 3 Xrotation Yrotation Zrotation
									JOINT RightHandRing2
									{
										OFFSET -3.162567 0.000000 0.000000
										CHANNELS 3 Xrotation Yrotation Zrotation
										JOINT RightHandRing3
										{
											OFFSET -3.324348 0.000000 0.000000
											CHANNELS 3 Xrotation Yrotation Zrotation
											End Site
											{
												OFFSET 0.861900 3.184998 0.405154
											}
										}
									}
								}
								JOINT RightHandPinky1
								{
									OFFSET -13.131393 -0.168503 -5.746925
									CHANNELS 3 Xrotation Yrotation Zrotation
									JOINT RightHandPinky2
									{
										OFFSET -2.849182 0.000000 0.000000
										CHANNELS 3 Xrotation Yrotation Zrotation
										JOINT RightHandPinky3
										{
											OFFSET -2.805038 0.000000 0.000000
											CHANNELS 3 Xrotation Yrotation Zrotation
											End Site
											{
												OFFSET 0.882500 2.642609 0.325652
											}
										}
									}
								}
							}
							JOINT Right_Sleeve
							{
								OFFSET -6.592125 -0.646545 0.805568
								CHANNELS 3 Xrotation Yrotation Zrotation
								End Site
								{
									OFFSET 0.000179 20.275787 -0.000000
								}
							}
						}
					}
				}
				JOINT Bind_Right_JacketString
				{
					OFFSET -3.534800 11.969597 7.200700
					CHANNELS 3 Xrotation Yrotation Zrotation
					JOINT Bind_Right_JacketString1
					{
						OFFSET -0.319900 -6.102600 2.794100
						CHANNELS 3 Xrotation Yrotation Zrotation
						End Site
						{
							OFFSET 0.000000 6.719452 0.000000
						}
					}
				}
				JOINT Bind_Left_JacketString
				{
					OFFSET 2.904800 11.969597 7.200700
					CHANNELS 3 Xrotation Yrotation Zrotation
					JOINT Bind_Left_JacketString1
					{
						OFFSET 0.364800 -5.904503 3.186800
						CHANNELS 3 Xrotation Yrotation Zrotation
						End Site
						{
							OFFSET 0.000000 6.719513 0.000000
						}
					}
				}
				JOINT HairE
				{
					OFFSET 5.915200 17.612701 -11.592200
					CHANNELS 3 Xrotation Yrotation Zrotation
					JOINT HairE1
					{
						OFFSET 0.289200 -7.171898 -1.284500
						CHANNELS 3 Xrotation Yrotation Zrotation
						End Site
						{
							OFFSET 0.000000 7.291756 0.000000
						}
					}
				}
				JOINT HairF
				{
					OFFSET -0.864800 17.612701 -11.592200
					CHANNELS 3 Xrotation Yrotation Zrotation
					JOINT HairF1
					{
						OFFSET 0.000000 -14.087097 -2.127501
						CHANNELS 3 Xrotation Yrotation Zrotation
						End Site
						{
							OFFSET 0.000000 14.246841 0.000000
						}
					}
				}
				JOINT HairG
				{
					OFFSET -8.087700 17.612701 -11.592200
					CHANNELS 3 Xrotation Yrotation Zrotation
					JOINT HairG1
					{
						OFFSET -0.293600 -6.081398 -0.910100
						CHANNELS 3 Xrotation Yrotation Zrotation
						End Site
						{
							OFFSET 0.000000 6.156120 0.000000
						}
					}
				}
			}
		}
	}
	JOINT Pouch
	{
		OFFSET 0.000000 4.394501 10.847300
		CHANNELS 3 Xrotation Yrotation Zrotation
		End Site
		{
			OFFSET 0.000000 21.880577 0.000000
		}
	}
	JOINT Bag
	{
		OFFSET -13.229000 4.813004 -0.593300
		CHANNELS 3 Xrotation Yrotation Zrotation
		End Site
		{
			OFFSET 0.000000 21.880577 0.000000
		}
	}
	JOINT OccupyGuyFacialAnim_Joint
	{
		OFFSET 1.000000 -70.206398 -1.655000
		CHANNELS 3 Xrotation Yrotation Zrotation
		End Site
		{
			OFFSET 0.000000 21.880577 0.000000
		}
	}
}
MOTION
Frames: 4
Frame Time: 0.016667
-4.195428 67.755608 1.269527 2.463991 28.114496 0.388345 -0.000000 -0.000001 -0.000000 -28.200994 -22.982198 0.601358 29.331865 15.156376 -7.944830 -2.455304 -2.949202 -5.065077 -0.000000 0.000001 0.000000 0.000001 0.000000 -0.000000 -2.990236 -27.654825 -6.787932 31.570944 -8.426713 8.176256 -29.498631 -10.077246 -0.533716 0.000000 -0.000002 0.000000 0.000000 -0.000000 0.000000 3.876473 4.548279 -1.363290 0.662380 3.033939 0.848257 0.672733 3.142728 0.838939 -2.710826 10.151299 -6.043546 -8.274086 5.419462 8.279209 -0.000000 0.000001 0.000000 -0.000000 0.000001 0.000000 -0.000000 0.000001 0.000000 -0.000000 0.000001 0.000001 -0.000000 0.000002 0.000001 -0.000000 0.000001 0.000001 -0.000000 0.000002 0.000001 -0.000000 0.000001 0.000000 -0.000000 0.000001 0.000000 -0.170426 1.694766 -1.674852 -70.359172 1.043897 -26.985331 2.443044 -70.793272 3.754345 -29.776169 28.488649 8.482174 17.563638 -5.693985 -12.929233 10.852325 26.148385 8.654081 0.000001 -0.000000 -0.000000 13.978270 1.203587 -55.006047 0.372662 1.163852 -65.441873 0.000001 -0.000001 0.000001 7.502548 1.175436 -63.755287 1.809508 1.478248 -64.569863 -0.000001 0.000001 -0.000005 8.574322 2.179050 -75.149006 -0.208043 1.014710 -57.856791 -0.000001 0.000001 0.000000 10.030095 13.637039 -84.750251 0.878821 0.065139 -64.595496 -0.000001 -0.000001 -0.000001 0.000002 0.000000 0.000002 4.020289 15.450590 6.652469 13.125172 -8.190050 63.320812 15.659583 40.753512 -6.335578 0.612809 5.014356 4.113592 15.788501 -2.734497 -17.205883 -2.198312 -31.113550 7.361232 -0.000000 0.000000 0.000003 2.074274 -2.892231 8.063601 -2.121933 -2.465256 18.435487 -0.000001 0.000001 0.000001 -2.068518 -5.551582 13.796155 0.296920 -5.078012 27.073159 0.000001 -0.000002 0.000001 -2.790453 -9.236736 13.386746 4.022945 -4.011826 34.251732 0.000000 -0.000001 -0.000004 -5.652135 -13.452098 23.029986 10.777259 -2.332150 36.218444 -0.000001 -0.000000 0.000002 -0.000000 0.000000 0.000001 -0.000000 -0.000001 -0.000000 -0.000000 -0.000001 -0.000000 -0.000000 -0.000001 -0.000000 -0.000000 -0.000001 -0.000000 -0.000000 -0.000001 -0.000000 -0.000000 -0.000001 -0.000000 -0.000000 -0.000001 -0.000000 -0.000000 -0.000001 -0.000000 -0.000000 -0.000001 -0.000000 -0.000000 -0.000001 -0.000000 -0.000000 -0.000001 -0.000000 -0.000000 -0.000001 -0.000000 -0.000000 -0.000001 -0.000000 
-4.234830 67.762909 1.199118 2.694316 26.716433 0.211127 -0.000000 -0.000003 0.000000 -28.146281 -22.251278 1.200110 29.532826 15.442672 -7.948457 -2.616390 -2.731484 -5.194809 0.000000 0.000001 0.000000 0.000002 0.000000 -0.000001 -3.521104 -26.629205 -6.729920 31.717005 -8.182590 7.991656 -29.360897 -9.971714 -0.511161 -0.000000 -0.000000 -0.000000 0.000000 -0.000000 -0.000000 3.943586 4.473139 -1.379637 0.707249 2.981740 0.854121 0.717241 3.091653 0.846011 -3.079330 8.772023 -5.694022 -7.482103 4.208277 8.375151 0.000000 0.000001 0.000000 0.000000 0.000001 0.000000 0.000000 0.000001 -0.000000 0.000000 0.000001 -0.000000 -0.000000 0.000001 -0.000000 0.000000 0.000001 -0.000000 -0.000000 0.000001 -0.000000 0.000000 0.000001 0.000000 0.000000 0.000001 0.000000 -0.162805 1.312155 -1.801276 -70.388911 1.155123 -27.050797 2.651004 -71.946440 3.781610 -30.374944 28.694605 9.100143 17.563635 -5.693983 -12.929239 10.852322 26.148382 8.654084 -0.000001 -0.000000 -0.000001 13.978270 1.203589 -55.006047 0.372660 1.163849 -65.441880 -0.000001 -0.000001 -0.000002 7.502546 1.175438 -63.755287 1.809507 1.478253 -64.569856 -0.000000 -0.000001 0.000001 8.574322 2.179050 -75.149006 -0.208048 1.014710 -57.856784 -0.000000 0.000000 -0.000004 10.030094 13.637038 -84.750251 0.878821 0.065138 -64.595496 0.000001 0.000000 -0.000004 0.000000 0.000000 -0.000001 4.048796 15.426127 6.521218 12.805606 -8.144394 63.265754 15.745724 41.230850 -6.421025 0.382667 5.166918 4.027967 15.788498 -2.734495 -17.205883 -2.198313 -31.113554 7.361231 -0.000001 -0.000001 -0.000002 2.074624 -2.893194 8.030013 -2.121182 -2.465780 18.407503 -0.000000 -0.000002 -0.000002 -2.069249 -5.550819 13.763149 0.297729 -5.078524 27.045806 0.000001 -0.000000 -0.000004 -2.792292 -9.234406 13.352257 4.022595 -4.012752 34.223223 -0.000000 0.000000 -0.000001 -5.659327 -13.435640 23.012572 10.777867 -2.332986 36.195454 -0.000000 -0.000002 0.000000 0.000003 0.000000 0.000001 -0.000001 -0.000001 -0.000000 0.000000 -0.000001 0.000000 -0.000001 -0.000001 0.000000 -0.000001 -0.000001 0.000000 -0.000001 -0.000001 -0.000000 0.000000 -0.000001 0.000001 -0.000001 -0.000001 0.000000 -0.000001 -0.000001 0.000000 -0.000001 -0.000001 -0.000000 0.000000 -0.000001 0.000001 -0.000000 -0.000003 0.000000 -0.000000 -0.000003 0.000000 -0.000000 -0.000003 0.000000 
-4.268777 67.767799 1.119685 2.952689 25.283178 0.033238 0.000000 -0.000001 -0.000000 -28.136015 -21.544210 1.792072 29.752482 15.770927 -7.969647 -2.782775 -2.486714 -5.335780 0.000000 -0.000002 0.000000 -0.000001 -0.000000 -0.000000 -4.089040 -25.541100 -6.710143 31.869912 -7.933442 7.895240 -29.211124 -9.847079 -0.497574 -0.000000 -0.000000 -0.000000 -0.000000 0.000000 -0.000000 4.006363 4.412184 -1.377184 0.745715 2.934847 0.846917 0.756889 3.044785 0.839890 -3.457282 7.577855 -5.438824 -6.770385 3.128967 8.503118 -0.000000 -0.000000 -0.000000 -0.000000 -0.000000 -0.000000 -0.000000 -0.000000 -0.000001 -0.000000 -0.000000 -0.000000 -0.000000 -0.000001 -0.000000 -0.000000 -0.000000 -0.000000 -0.000000 -0.000001 -0.000000 -0.000000 -0.000000 -0.000000 -0.000000 -0.000000 -0.000000 -0.084036 0.806790 -1.884201 -70.540288 1.291849 -27.179157 2.895051 -73.071058 3.786740 -31.235661 28.851388 9.761316 17.563635 -5.693985 -12.929234 10.852321 26.148385 8.654084 0.000001 -0.000000 0.000000 13.978272 1.203582 -55.006047 0.372666 1.163847 -65.441873 0.000001 -0.000002 -0.000002 7.502546 1.175437 -63.755287 1.809507 1.478251 -64.569856 -0.000001 -0.000001 0.000001 8.574322 2.179048 -75.149006 -0.208046 1.014710 -57.856791 0.000001 0.000001 -0.000001 10.030092 13.637038 -84.750251 0.878824 0.065140 -64.595496 0.000000 0.000001 -0.000002 0.000000 0.000000 -0.000001 4.018021 15.343503 6.386900 12.582810 -8.065739 63.241862 15.851389 41.731974 -6.506775 0.197840 5.306173 3.964794 15.788501 -2.734498 -17.205882 -2.198311 -31.113550 7.361228 -0.000003 0.000000 0.000000 2.074929 -2.893541 7.958541 -2.120546 -2.465790 18.342304 -0.000001 -0.000000 0.000000 -2.070267 -5.549538 13.692542 0.297847 -5.078818 26.981093 0.000000 -0.000001 -0.000003 -2.794172 -9.231173 13.280187 4.022283 -4.012927 34.157277 -0.000000 0.000000 -0.000005 -5.666645 -13.418899 22.958438 10.777977 -2.333376 36.135744 -0.000002 0.000000 0.000006 0.000001 0.000000 -0.000001 -0.000000 0.000002 -0.000000 0.000001 0.000001 -0.000000 -0.000000 0.000002 -0.000000 -0.000000 0.000002 -0.000000 -0.000000 0.000002 -0.000000 0.000001 0.000001 -0.000000 -0.000000 0.000002 -0.000000 -0.000000 0.000002 -0.000000 -0.000000 0.000002 -0.000000 0.000001 0.000001 -0.000000 0.000000 -0.000001 -0.000000 0.000000 -0.000001 -0.000000 0.000000 -0.000001 -0.000000 
-4.299893 67.771088 1.031717 3.240579 23.811718 -0.146055 0.000000 0.000000 -0.000000 -28.166875 -20.888267 2.383437 29.980764 16.131782 -8.014862 -2.936845 -2.224151 -5.466300 -0.000000 -0.000001 -0.000000 -0.000000 0.000000 -0.000001 -4.727424 -24.463187 -6.709491 32.071993 -7.703967 7.806029 -29.065064 -9.728974 -0.500960 -0.000000 0.000002 -0.000000 0.000000 -0.000000 -0.000000 4.057061 4.314058 -1.408339 0.790329 2.868909 0.853545 0.800374 2.980530 0.848367 -3.958430 6.548242 -5.148042 -6.079050 2.232474 8.598651 -0.000000 -0.000001 -0.000000 -0.000000 -0.000001 -0.000000 -0.000000 -0.000001 -0.000000 -0.000000 -0.000001 -0.000000 -0.000000 0.000001 -0.000000 -0.000000 -0.000001 -0.000000 -0.000000 0.000001 -0.000000 -0.000000 -0.000001 -0.000000 -0.000000 -0.000001 -0.000000 -0.018818 0.448296 -1.891518 -70.716527 1.401103 -27.633591 3.155437 -74.131076 3.832627 -32.165072 28.983368 10.355851 17.563633 -5.693984 -12.929238 10.852318 26.148380 8.654081 0.000003 -0.000000 -0.000001 13.978270 1.203587 -55.006041 0.372665 1.163847 -65.441873 -0.000001 -0.000002 0.000001 7.502549 1.175437 -63.755287 1.809507 1.478252 -64.569849 -0.000003 -0.000000 0.000001 8.574321 2.179052 -75.149006 -0.208044 1.014710 -57.856791 -0.000001 -0.000001 -0.000001 10.030094 13.637042 -84.750251 0.878823 0.065139 -64.595496 0.000000 0.000001 0.000003 0.000002 -0.000001 0.000001 4.046389 15.322754 6.229104 12.299365 -7.930881 63.218093 15.936165 42.171661 -6.586636 0.097007 5.468613 3.943401 15.788500 -2.734495 -17.205883 -2.198312 -31.113550 7.361230 0.000001 0.000000 -0.000000 2.075172 -2.893285 7.852199 -2.120027 -2.465267 18.240812 0.000001 0.000002 0.000002 -2.071537 -5.547796 13.586788 0.297049 -5.079004 26.880720 0.000001 0.000001 -0.000002 -2.798418 -9.227071 13.172292 4.022022 -4.012410 34.056034 -0.000001 0.000001 -0.000000 -5.674515 -13.400888 22.869603 10.777676 -2.333350 36.041279 -0.000004 0.000000 0.000001 -0.000001 -0.000001 -0.000000 0.000000 0.000001 0.000000 0.000001 0.000002 -0.000000 0.000000 0.000001 0.000000 0.000000 0.000001 0.000000 0.000000 0.000001 0.000000 0.000001 0.000002 -0.000000 0.000000 0.000001 0.000000 0.000000 0.000001 0.000000 0.000000 0.000001 0.000000 0.000001 0.000002 -0.000000 0.000000 0.000000 -0.000000 0.000000 0.000000 -0.000000 0.000000 0.000000 -0.000000 
